<?xml version="1.0" standalone="no"?>
<!DOCTYPE svg PUBLIC "-//W3C//DTD SVG 20010904//EN"
 "http://www.w3.org/TR/2001/REC-SVG-20010904/DTD/svg10.dtd">
<svg version="1.0" xmlns="http://www.w3.org/2000/svg"
 width="260.000000pt" height="260.000000pt" viewBox="0 0 260.000000 260.000000"
 preserveAspectRatio="xMidYMid meet">
<metadata>
Created by potrace 1.11, written by Peter Selinger 2001-2013
</metadata>
<g transform="translate(0.000000,260.000000) scale(0.100000,-0.100000)"
fill="#000000" stroke="none">
<path d="M1300 2360 c0 -11 4 -20 9 -20 5 0 7 9 4 20 -3 11 -7 20 -9 20 -2 0
-4 -9 -4 -20z"/>
<path d="M1353 2345 c20 -40 33 -92 52 -200 12 -73 14 -135 9 -337 l-7 -248
-50 0 -50 0 5 268 c4 209 2 279 -9 322 -15 58 -56 130 -74 130 -6 0 1 -14 15
-31 53 -63 58 -107 48 -441 -5 -167 -6 -317 -2 -334 4 -17 8 -76 9 -130 3
-157 36 -593 46 -603 13 -12 15 14 6 95 -10 87 -24 296 -36 520 l-6 110 36 -4
c19 -2 41 1 49 7 11 9 14 -26 20 -211 13 -468 19 -579 28 -570 5 5 5 123 -2
293 -12 332 -13 660 -2 658 37 -6 47 39 10 48 -21 6 -21 8 -14 174 4 100 2
197 -4 241 -15 105 -49 225 -72 251 l-19 22 14 -30z m30 -802 c-18 -2 -48 -2
-65 0 -18 2 -4 4 32 4 36 0 50 -2 33 -4z"/>
<path d="M1467 2353 c-4 -3 -7 -11 -7 -17 0 -6 5 -5 12 2 6 6 9 14 7 17 -3 3
-9 2 -12 -2z"/>
<path d="M1220 2316 c0 -2 8 -10 18 -17 15 -13 16 -12 3 4 -13 16 -21 21 -21
13z"/>
<path d="M1486 2158 c9 -26 8 -355 -1 -493 -26 -401 -35 -945 -16 -945 23 0
29 43 35 285 4 143 9 275 12 293 6 29 10 32 43 32 20 0 63 7 96 14 75 18 101
46 151 165 72 172 94 321 54 361 -11 11 -27 20 -36 20 -8 0 -12 5 -9 10 3 6 1
10 -4 10 -22 0 -43 -80 -57 -215 -19 -198 -22 -209 -52 -238 -32 -30 -60 -42
-124 -51 l-48 -7 0 36 c0 20 7 94 16 163 9 71 17 206 18 307 l1 180 -34 48
c-37 50 -57 62 -45 25z"/>
<path d="M1730 1923 c0 -13 5 -23 10 -23 13 0 13 11 0 30 -8 12 -10 11 -10 -7z"/>
<path d="M1665 1860 c3 -5 14 -10 23 -10 15 0 15 2 2 10 -20 13 -33 13 -25 0z"/>
<path d="M1220 1665 c-11 -13 -11 -19 3 -32 21 -21 49 -9 45 19 -4 28 -30 35
-48 13z"/>
<path d="M972 1575 c0 -16 2 -22 5 -12 2 9 2 23 0 30 -3 6 -5 -1 -5 -18z"/>
<path d="M890 1542 c0 -12 19 -26 26 -19 2 2 -2 10 -11 17 -9 8 -15 8 -15 2z"/>
<path d="M1025 1539 c-11 -17 1 -21 15 -4 8 9 8 15 2 15 -6 0 -14 -5 -17 -11z"/>
<path d="M875 1490 c-22 -35 98 -280 174 -355 32 -32 39 -35 95 -35 34 0 78 3
99 6 33 6 37 10 37 36 0 27 -3 30 -22 24 -13 -3 -48 -9 -79 -12 -75 -9 -115
11 -168 83 -48 65 -121 207 -124 241 -1 25 -3 26 -12 12z"/>
<path d="M2389 1369 c-18 -18 -20 -28 -15 -87 4 -37 9 -80 12 -96 5 -21 3 -27
-7 -24 -9 3 -15 23 -17 54 -4 57 -14 73 -37 54 -30 -25 7 -140 45 -140 18 0
20 -7 20 -55 0 -30 1 -58 3 -61 1 -3 -119 -7 -268 -9 -240 -3 -443 -14 -573
-31 l-43 -5 3 -112 c2 -65 7 -112 13 -113 14 -1 68 -16 78 -21 4 -2 -7 -20
-25 -39 -31 -33 -37 -35 -88 -33 -30 2 -65 -2 -77 -9 -23 -13 -120 -16 -147
-6 -9 3 -16 15 -16 25 0 16 -8 19 -45 19 -41 0 -45 2 -45 25 0 32 41 59 78 52
l29 -6 -22 97 c-18 80 -25 97 -40 95 -110 -10 -525 -22 -577 -17 l-68 7 0 47
c0 42 3 49 23 54 37 9 79 123 47 128 -32 4 -35 0 -40 -46 -3 -27 -10 -51 -16
-53 -7 -2 -8 18 -1 67 10 83 5 115 -23 130 -64 34 -105 -75 -80 -212 4 -21 3
-38 -1 -38 -5 0 -9 10 -9 23 0 30 -24 62 -38 53 -16 -10 -15 -29 5 -71 9 -20
24 -35 34 -35 9 0 19 -9 22 -20 7 -26 4 -26 -263 5 -117 14 -215 25 -217 25
-2 0 -3 -223 -3 -495 l0 -495 1300 0 1300 0 0 494 0 493 -37 7 c-21 3 -53 6
-70 6 -20 0 -33 5 -33 13 0 29 13 55 29 60 20 5 51 64 51 97 0 40 -33 19 -46
-30 -11 -42 -12 -37 -12 71 1 88 -3 123 -16 147 -19 38 -47 41 -77 11z m-1172
-725 c-3 -3 -12 -4 -19 -1 -8 3 -5 6 6 6 11 1 17 -2 13 -5z m311 -46 c-7 -19
-38 -22 -38 -4 0 10 9 16 21 16 12 0 19 -5 17 -12z"/>
</g>
</svg>
